USFL
nRows=230
nColumns=2
inDegrees=yes
endheader
time	tib_ant_r	
3.02722	 75.047036	
3.06048	 75.025454	
3.09375	 75.047269	
3.12702	 75.244210	
3.16028	 75.159881	
3.19355	 75.093462	
3.22681	 75.033294	
3.26008	 75.102793	
3.29335	 75.157987	
3.32661	 75.163811	
3.35988	 75.135504	
3.39315	 75.153012	
3.42641	 75.228074	
3.45968	 75.288651	
3.49294	 75.226204	
3.52621	 75.192717	
3.55948	 75.199028	
3.59274	 75.213517	
3.62601	 75.263930	
3.65927	 75.231509	
3.69254	 75.230843	
3.72581	 75.232374	
3.75907	 75.222603	
3.79234	 75.249229	
3.8256	 75.301607	
3.85887	 75.308202	
3.89214	 75.281759	
3.9254	 75.278899	
3.95867	 75.277808	
3.99194	 75.269311	
4.0252	 75.274549	
4.05847	 75.273288	
4.09173	 75.274659	
4.125	 75.295608	
4.15827	 75.289533	
4.19153	 75.278748	
4.2248	 75.287483	
4.25806	 75.275146	
4.29133	 75.301248	
4.3246	 75.296594	
4.35786	 75.285113	
4.39113	 75.273190	
4.4244	 75.289678	
4.45766	 75.284905	
4.49093	 75.311158	
4.52419	 75.314540	
4.55746	 75.256343	
4.59073	 75.270286	
4.62399	 75.250147	
4.65726	 75.230760	
4.69052	 75.240660	
4.72379	 75.255478	
4.75706	 75.281141	
4.79032	 75.275643	
4.82359	 75.292319	
4.85685	 75.367846	
4.89012	 75.348264	
4.92339	 75.327513	
4.95665	 75.323401	
4.98992	 75.159627	
5.02319	 74.959413	
5.05645	 74.625442	
5.08972	 74.477164	
5.12298	 74.419886	
5.15625	 74.265982	
5.18952	 74.140526	
5.22278	 73.791796	
5.25605	 73.705053	
5.28931	 73.155706	
5.32258	 72.918242	
5.35585	 72.826364	
5.38911	 72.804696	
5.42238	 72.675765	
5.45565	 72.510933	
5.48891	 72.236032	
5.52218	 71.940206	
5.55544	 71.560104	
5.58871	 70.867252	
5.62198	 69.745632	
5.65524	 69.405839	
5.68851	 69.278865	
5.72177	 68.730608	
5.75504	 67.893178	
5.78831	 67.477350	
5.82157	 67.408790	
5.85484	 67.180738	
5.8881	 67.058121	
5.92137	 67.176056	
5.95464	 66.750185	
5.9879	 66.691879	
6.02117	 66.415380	
6.05444	 66.173083	
6.0877	 66.065130	
6.12097	 65.818078	
6.15423	 65.622422	
6.1875	 65.651051	
6.22077	 65.699535	
6.25403	 65.621622	
6.2873	 65.682635	
6.32056	 65.573604	
6.35383	 65.538041	
6.3871	 65.564032	
6.42036	 65.589935	
6.45363	 65.577344	
6.4869	 65.447250	
6.52016	 65.348290	
6.55343	 65.364094	
6.58669	 65.391120	
6.61996	 65.369022	
6.65323	 65.422137	
6.68649	 65.397011	
6.71976	 65.297619	
6.75302	 65.280866	
6.78629	 65.290212	
6.81956	 65.367690	
6.85282	 65.331299	
6.88609	 65.284053	
6.91935	 65.133867	
6.95262	 64.843325	
6.98589	 64.795878	
7.01915	 64.817178	
7.05242	 64.720298	
7.08569	 64.672581	
7.11895	 64.892601	
7.15222	 64.872415	
7.18548	 64.918606	
7.21875	 64.977460	
7.25202	 64.934039	
7.28528	 65.018207	
7.31855	 65.248037	
7.35181	 65.185226	
7.38508	 65.177871	
7.41835	 65.238975	
7.45161	 65.098901	
7.48488	 65.190824	
7.51815	 65.148306	
7.55141	 65.183513	
7.58468	 65.126290	
7.61794	 65.099666	
7.65121	 65.203578	
7.68448	 65.344731	
7.71774	 65.386080	
7.75101	 65.481409	
7.78427	 65.772136	
7.81754	 65.879815	
7.85081	 66.047391	
7.88407	 66.057027	
7.91734	 65.967086	
7.9506	 65.798341	
7.98387	 65.541483	
8.01714	 65.534905	
8.0504	 65.771654	
8.08367	 65.791714	
8.11694	 65.914593	
8.1502	 65.862534	
8.18347	 65.876358	
8.21673	 66.022770	
8.25	 65.911488	
8.28327	 65.970386	
8.31653	 65.886776	
8.3498	 65.852417	
8.38306	 65.855937	
8.41633	 65.894068	
8.4496	 66.076574	
8.48286	 66.171191	
8.51613	 66.298136	
8.5494	 66.241566	
8.58266	 66.253388	
8.61593	 66.284802	
8.64919	 66.386953	
8.68246	 66.378548	
8.71573	 66.286027	
8.74899	 66.242578	
8.78226	 66.154968	
8.81552	 66.126581	
8.84879	 66.149852	
8.88206	 66.099346	
8.91532	 66.094013	
8.94859	 66.025659	
8.98185	 66.204857	
9.01512	 66.194039	
9.04839	 66.331180	
9.08165	 66.343551	
9.11492	 66.375663	
9.14819	 66.496090	
9.18145	 66.560472	
9.21472	 66.760335	
9.24798	 66.797055	
9.28125	 66.840352	
9.31452	 66.762079	
9.34778	 66.825981	
9.38105	 66.701358	
9.41431	 66.528795	
9.44758	 66.552947	
9.48085	 66.491158	
9.51411	 66.485323	
9.54738	 66.547679	
9.58065	 66.606020	
9.61391	 66.805803	
9.64718	 66.859505	
9.68044	 66.953890	
9.71371	 67.177788	
9.74698	 67.300069	
9.78024	 67.487213	
9.81351	 67.538855	
9.84677	 67.523195	
9.88004	 67.700675	
9.91331	 67.857227	
9.94657	 67.992019	
9.97984	 67.998442	
10.0131	 68.078736	
10.0464	 68.047615	
10.0796	 68.193634	
10.1129	 68.153243	
10.1462	 68.131528	
10.1794	 68.103361	
10.2127	 68.030043	
10.246	 68.074721	
10.2792	 68.124229	
10.3125	 68.177963	
10.3458	 68.385437	
10.379	 68.486040	
10.4123	 68.458906	
10.4456	 68.690001	
10.4788	 68.549020	
10.5121	 68.567547	
10.5454	 68.657538	
10.5786	 68.739635	
10.6119	 68.899874	
10.6452	 68.925500	
